<svg xmlns="http://www.w3.org/2000/svg" width="1200" height="630" viewBox="0 0 1200 630" role="img" aria-label="Resume Builder  private browser resume editor">
  <rect width="1200" height="630" fill="#fafaf9"/>
  <rect x="0" y="0" width="1200" height="630" fill="url(#bg)" opacity="1"/>
  <defs>
    <linearGradient id="bg" x1="0" y1="0" x2="1" y2="1">
      <stop offset="0%" stop-color="#fafaf9"/>
      <stop offset="100%" stop-color="#f5f5f4"/>
    </linearGradient>
  </defs>
  <g transform="translate(80 120)">
    <g transform="translate(0 0)">
      <rect width="64" height="64" rx="16" fill="#1c1917"/>
      <path d="M18 16h19l7 7v29a3 3 0 0 1-3 3H18a3 3 0 0 1-3-3V19a3 3 0 0 1 3-3z" fill="#fafaf9"/>
      <path d="M37 16v7h7" stroke="#d6d3d1" stroke-width="2" stroke-linecap="round"/>
      <path d="M22 31h24" stroke="#0891b2" stroke-width="3" stroke-linecap="round"/>
      <path d="M22 38h19M22 44h14" stroke="#a8a29e" stroke-width="2.5" stroke-linecap="round"/>
    </g>
    <text x="88" y="44" fill="#1c1917" font-family="Georgia, 'Times New Roman', serif" font-size="42" font-weight="600">Resume</text>
    <text x="248" y="44" fill="#57534e" font-family="system-ui, sans-serif" font-size="42" font-weight="500">Builder</text>
    <text x="0" y="100" fill="#57534e" font-family="system-ui, sans-serif" font-size="28">Build a resume without leaving the browser.</text>
    <text x="0" y="148" fill="#78716c" font-family="system-ui, sans-serif" font-size="22">Private editing · Local autosave · PDF and HTML export</text>
  </g>
  <g transform="translate(640 80)">
    <rect x="0" y="0" width="480" height="470" rx="16" fill="#e7e5e4" stroke="#d6d3d1" stroke-width="1"/>
    <rect x="16" y="16" width="448" height="40" rx="8" fill="#fafaf9"/>
    <circle cx="36" cy="36" r="6" fill="#fca5a5"/>
    <circle cx="56" cy="36" r="6" fill="#fcd34d"/>
    <circle cx="76" cy="36" r="6" fill="#86efac"/>
    <rect x="24" y="72" width="140" height="374" rx="8" fill="#fafaf9" stroke="#d6d3d1"/>
    <rect x="180" y="72" width="284" height="374" rx="8" fill="#ffffff" stroke="#d6d3d1"/>
    <rect x="200" y="96" width="120" height="10" rx="5" fill="#1c1917"/>
    <rect x="200" y="116" width="80" height="6" rx="3" fill="#d6d3d1"/>
    <rect x="200" y="150" width="200" height="5" rx="2.5" fill="#0891b2"/>
    <rect x="200" y="168" width="180" height="4" rx="2" fill="#e7e5e4"/>
    <rect x="200" y="180" width="160" height="4" rx="2" fill="#e7e5e4"/>
    <rect x="200" y="192" width="140" height="4" rx="2" fill="#e7e5e4"/>
  </g>
</svg>
